# Blender v2.91.2 OBJ File: 'rombos.blend'
# www.blender.org
mtllib rombos.mtl
o Cube_Cube.001
v -0.011728 1.787202 0.014200
v -0.001559 1.787148 0.008385
v -0.011779 1.787157 0.002495
v -1.360422 -0.009358 -0.007560
v -1.360464 -0.009341 0.004154
v -1.360452 0.009366 0.004237
v -1.360488 0.009341 -0.007469
v 0.682080 -0.009347 1.169738
v 0.682061 0.009340 1.169859
v 0.671902 0.009366 1.175692
v 0.671933 -0.009342 1.175633
v 0.665027 -0.009358 -1.169544
v 0.664992 0.009341 -1.169470
v 0.675209 0.009340 -1.163574
v 0.675228 -0.009347 -1.163679
v -0.007575 -1.787147 -0.011709
v 0.002623 -1.787144 -0.005840
v -0.007554 -1.787215 0.000004
vt 0.373060 0.744883
vt 0.373060 0.498651
vt 0.003713 0.006189
vt 0.002478 0.007426
vt 0.125592 0.746112
vt 0.371820 0.746112
vt 0.002465 0.006166
vt 0.371825 0.498646
vt 0.125585 0.744886
vt 0.373058 0.744881
vt 0.373058 0.498652
vt 0.003714 0.006193
vt 0.371822 0.497413
vt 0.125589 0.497413
vt 0.002473 0.004948
vt 0.002997 0.005606
vt 0.002701 0.005402
vt 0.002695 0.003593
vt 0.124014 0.744086
vt 0.126271 0.750000
vt 0.126882 0.750000
vt 0.376447 0.750519
vt 0.372048 0.744095
vt 0.372032 0.744063
vt 0.375000 0.748724
vt 0.374088 0.501936
vt 0.373114 0.500000
vt 0.372044 0.496058
vt 0.373746 0.500000
vt 0.373121 0.500000
vt 0.126893 0.500000
vt 0.375000 0.748106
vt 0.375000 0.501876
vt 0.124010 0.496041
vt 0.000893 0.003571
vt 0.002679 0.005358
vt 0.371820 0.498639
vt 0.125585 0.744874
vt 0.002468 0.006169
vn 0.9340 0.3573 -0.0027
vn -0.4657 -0.3525 -0.8117
vn -0.4665 -0.3569 0.8093
vn 0.9347 -0.3554 -0.0027
vn -0.4648 0.3572 -0.8102
vn 0.0031 1.0000 -0.0039
vn -1.0000 -0.0014 -0.0003
vn 0.5001 -0.0035 0.8659
vn 0.4991 0.0049 -0.8665
vn 0.0037 -1.0000 -0.0058
vn -0.4976 0.0025 -0.8674
vn 1.0000 0.0010 -0.0029
vn -0.7967 0.6044 0.0011
vn 0.3977 0.6057 -0.6892
vn 0.3980 0.6041 0.6904
vn -0.7958 -0.6056 -0.0020
vn 0.3990 -0.6070 0.6873
vn 0.3986 -0.6016 -0.6922
vn -0.4994 -0.0035 0.8664
vn -0.4677 0.3503 0.8115
usemtl None
s off
f 9/1/1 14/2/1 2/3/1
f 16/4/2 4/5/2 12/6/2
f 18/7/3 11/8/3 5/9/3
f 15/10/4 8/11/4 17/12/4
f 13/13/5 7/14/5 3/15/5
f 1/16/6 2/17/6 3/18/6
f 4/5/7 5/19/7 6/20/7 7/21/7
f 8/22/8 9/23/8 10/24/8 11/25/8
f 12/26/9 13/27/9 14/28/9 15/29/9
f 16/4/10 17/12/10 18/7/10
f 12/30/11 4/31/11 7/14/11 13/13/11
f 8/32/12 15/33/12 14/2/12 9/1/12
f 3/15/13 7/14/13 6/34/13 1/35/13
f 2/3/14 14/2/14 13/13/14 3/15/14
f 1/36/15 10/24/15 9/1/15 2/3/15
f 4/5/16 16/4/16 18/7/16 5/9/16
f 17/12/17 8/11/17 11/8/17 18/7/17
f 16/4/18 12/6/18 15/10/18 17/12/18
f 5/9/19 11/8/19 10/37/19 6/38/19
f 6/38/20 10/37/20 1/39/20
