# Blender v2.91.2 OBJ File: ''
# www.blender.org
mtllib StarLegRotated.mtl
o Small_Stellated_Dodecahedron_Ornament
v 6.073348 1.441468 12.724184
v -0.005877 -21.615658 -0.105417
v 13.993927 1.482685 -2.017251
v -10.393517 1.365804 9.746799
v 2.420812 1.433884 -14.104370
v -12.651389 1.361726 -6.834655
vn 0.7899 -0.4437 0.4232
vn -0.1571 -0.4482 0.8800
vn 0.6481 -0.4440 -0.6187
vn -0.8842 -0.4513 0.1205
vn -0.3865 -0.4487 -0.8058
vn -0.0046 1.0000 0.0004
usemtl None
s 1
f 1//1 2//1 3//1
f 1//2 4//2 2//2
f 3//3 2//3 5//3
f 2//4 4//4 6//4
f 2//5 6//5 5//5
f 6//6 4//6 1//6 3//6 5//6
