# Blender v2.91.2 OBJ File: ''
# www.blender.org
mtllib Star.mtl
o Small_Stellated_Dodecahedron_Ornament
v 13.823981 -13.141336 9.418181
v 21.569981 -28.617334 -11.405818
v 21.939981 -3.414335 -1.515820
v 36.103981 -3.688335 21.559181
v 22.168982 12.161665 4.596182
v -0.339018 -12.867336 -13.656821
v -22.225018 -28.437334 -10.226821
v -13.880018 -3.133335 -15.048820
v 35.071983 12.323664 -19.207821
v -35.789017 12.615664 -17.299820
v -8.723019 12.504663 -18.028820
v 0.053982 -18.984335 1.914181
v -21.854019 -3.234335 -0.336819
v -13.243019 -13.030336 10.147182
v 13.186981 -3.245337 -15.776820
v 8.005981 12.435663 -18.478821
v -13.510019 22.069666 -5.158820
v -21.626019 12.342665 5.775181
v -0.378019 37.807663 -22.849819
v 0.259981 27.911665 2.345181
v 13.556982 21.957663 -5.887820
v 22.538982 37.364670 14.486181
v 0.653172 21.795797 17.916151
v 14.193981 12.061663 19.308182
v -21.255020 37.545670 15.665181
v 0.652982 21.795664 17.916182
v 9.036982 -3.577335 22.288181
v -12.872019 12.172663 20.036182
v -7.691019 -3.507336 22.738182
v -34.758018 -3.396336 23.467182
v 1.290981 11.899664 43.111179
v 0.691981 -28.880335 27.109180
v -0.977018 -2.971336 -38.851822
vn 0.8627 -0.1957 0.4663
vn 0.8379 0.1886 -0.5121
vn -0.0272 -0.1785 -0.9836
vn 0.5139 -0.7939 -0.3249
vn -0.8627 0.1957 -0.4663
vn 0.0129 -0.8003 0.5995
vn -0.5371 -0.7896 -0.2966
vn -0.0129 0.8002 -0.5995
vn -0.5139 0.7940 0.3248
vn -0.0272 -0.1784 -0.9836
vn -0.5139 0.7940 0.3249
vn -0.0128 0.8002 -0.5995
vn 0.5372 0.7896 0.2965
vn 0.8379 0.1887 -0.5121
vn 0.8380 0.1886 -0.5121
vn -0.0129 0.8003 -0.5995
vn 0.0272 0.1785 0.9836
vn -0.0128 0.8003 -0.5995
vn 0.0272 0.1784 0.9836
vn 0.0328 0.1817 0.9828
vn -0.5083 0.7970 0.3264
vn 0.5372 0.7896 0.2966
vn -0.8379 -0.1886 0.5121
vn -0.8380 -0.1886 0.5121
vn 0.5139 -0.7940 -0.3249
vn 0.8627 -0.1956 0.4663
vn 0.0129 -0.8002 0.5996
vn -0.8627 0.1956 -0.4663
vn -0.5372 -0.7896 -0.2966
vn -0.8380 -0.1887 0.5121
vn 0.5139 -0.7940 -0.3248
vn -0.5140 0.7939 0.3249
vn 0.0128 -0.8002 0.5995
vn 0.5371 0.7896 0.2965
vn -0.5372 -0.7896 -0.2965
vn -0.5371 -0.7896 -0.2965
usemtl None
s off
f 1//1 2//1 3//1
f 4//2 3//2 5//2
f 6//3 7//3 8//3
f 9//1 5//1 3//1
f 10//3 11//3 8//3
f 6//4 12//4 7//4
f 8//5 7//5 13//5
f 7//6 12//6 14//6
f 10//7 8//7 13//7
f 9//3 15//3 16//3
f 11//8 10//8 17//8
f 18//9 17//9 10//9
f 11//5 17//5 19//5
f 11//10 19//10 16//10
f 20//11 19//11 17//11
f 21//12 9//12 16//12
f 5//13 9//13 21//13
f 19//14 21//14 16//14
f 21//15 22//15 5//15
f 20//16 22//16 21//16
f 21//13 19//13 20//13
f 22//17 23//17 24//17
f 22//9 20//9 23//9
f 22//1 24//1 5//1
f 24//13 4//13 5//13
f 20//18 17//18 25//18
f 24//19 27//19 4//19
f 23//20 26//20 24//20
f 28//19 26//19 25//19
f 23//21 20//21 26//21
f 26//22 20//22 25//22
f 29//17 28//17 30//17
f 18//11 30//11 28//11
f 25//23 18//23 28//23
f 17//5 18//5 25//5
f 7//24 14//24 13//24
f 1//6 4//6 27//6
f 3//25 4//25 1//25
f 24//26 31//26 27//26
f 29//24 31//24 28//24
f 14//27 29//27 30//27
f 18//28 13//28 30//28
f 3//15 2//15 15//15
f 13//29 14//29 30//29
f 18//30 10//30 13//30
f 15//31 9//31 3//31
f 32//4 12//4 1//4
f 2//6 1//6 12//6
f 27//1 32//1 1//1
f 29//23 14//23 32//23
f 31//32 26//32 28//32
f 27//33 31//33 29//33
f 2//10 6//10 15//10
f 24//34 26//34 31//34
f 27//19 29//19 32//19
f 32//35 14//35 12//35
f 6//29 2//29 12//29
f 33//28 8//28 11//28
f 8//36 33//36 6//36
f 33//15 16//15 15//15
f 11//12 16//12 33//12
f 33//25 15//25 6//25
