# ProBuilder 5.0.6
# https://unity3d.com/unity/features/worldbuilding/probuilder
# 03/02/2023 20:53:12

mtllib ./TriangleRoof.mtl
o TriangleRoof

g New Game Object
v 139.4282 -7.922424 4.705261
v 139.4444 -7.921936 4.678207
v 434.9986 1.539673 -514.7546
v 122.6813 -7.604492 4.63562
v 139.4282 -7.922424 4.705612
v 122.6812 -7.604492 4.635269
v 121.5166 2.134888 -331.0294
v 139.4294 -7.922424 4.705933
v 139.4283 -7.922424 4.707062
v 139.4297 -7.922424 4.7061
v 139.4412 -7.921997 4.683533
v 121.9682 -1.641174 -200.8894
v -447.1499 3.2146 2.254013
v -233.7141 -0.8378296 3.145935
v -233.7143 -0.8377686 3.146057
v 122.4966 -6.059875 -48.59885
v -10.27497 -1.342468 -125.0288
v 121.9191 -6.039368 -48.93127
v 121.5539 -1.640259 -200.6518
v -9.565258 -1.367676 -124.6202
v -9.56261 -1.346313 -125.3598
v -9.562848 -1.344055 -125.4373
v -9.565147 -1.36676 -124.6511
v -9.560327 -1.367859 -124.6174
v -9.560422 -1.366943 -124.6484
v 121.3798 -6.020203 -49.2417
v 121.9176 -6.021362 -49.55408
v 120.8936 -1.640137 -200.2283
v 121.5558 -1.663574 -199.8475
v 120.8547 -1.638733 -200.2507
v 120.8771 -1.639587 -200.2378
v -9.56275 -1.344971 -125.4055
v 121.6542 -2.848877 -158.9671
v 121.5341 -1.662842 -199.86
v 139.4449 -7.921875 4.677307
v 121.4593 6.210449 -325.0298
v 442.8616 5.604797 -511.8532
v 443.7285 7.945923 511.4731
v 123.3524 7.705994 329.0047
v 121.8184 6.49408 -200.9732
v -341.0099 7.358276 64.52979
v -445.9242 7.279724 4.776443
v -10.57039 6.741272 -125.0279
v 122.2599 6.842834 -48.46201
v 122.1555 6.842773 -48.52213
v 121.7017 6.494263 -200.9062
v -9.563229 6.740479 -125.1158
v -9.565618 6.742004 -124.4487
v -9.564734 6.73938 -125.6048
v -9.564899 6.741516 -124.6494
v -9.561789 6.741577 -124.6476
v -9.561169 6.742004 -124.4462
v 121.7227 6.840881 -49.43951
v 122.152 6.840088 -49.68607
v 121.1456 6.842041 -49.10425
v 121.9749 6.840393 -49.58435
v 121.9749 6.840393 -49.58606
v 122.152 6.840088 -49.68896
v 121.7051 6.496887 -199.7592
v 121.1106 6.49646 -200.1011
v 120.7056 6.496155 -200.3348
v 120.8764 6.496277 -200.2362
v 120.8759 6.496277 -200.236
v 120.7048 6.496155 -200.3344
v 120.8759 6.496277 -200.236
v -9.564114 6.739868 -125.4036
v 121.5337 6.496765 -199.8578
v 447.1499 2.205444 -512.2056
v 143.8832 -7.926392 7.256989
v 446.5254 3.880371 511.2558
v 435.4589 1.77771 -514.5847
v 429.053 1.550964 -511.27
v 429.7083 1.574158 -511.6346
v 429.7087 1.574097 -511.6349
v 267.7838 -3.813354 -220.8767
v 139.4708 -7.945923 9.803467
v 438.8605 3.869446 514.7546
v -447.1162 3.869446 7.353165
v 123.4379 3.869446 334.1111
v 122.6963 -7.608093 9.733398
v -344.0787 3.869446 66.36307
v -242.5585 -0.2509155 8.207642
v -447.0045 3.697083 2.553406
v -435.0226 3.191589 -4.853516
v 122.6962 -7.62677 9.587585
v 122.6952 -7.625244 9.247162
v -236.8782 -0.7858276 4.960083
v -36.41652 -4.583801 3.970673
v 442.595 6.996704 512.2372
v 441.4077 7.935303 510.1598
v 441.3965 7.944214 510.1449
v 121.4934 3.582458 -329.8625
v 121.4593 6.21051 -325.0298
v 121.4934 3.582458 -329.8625
v 123.3784 6.47998 330.1902
v 123.3784 6.480042 330.1902
v 123.3524 7.706055 329.0047
v -343.4714 4.343689 66.00473
v 121.2637 -6.016052 -49.30853
v 121.322 -2.841736 -49.20773
v 31.89737 -2.84082 -100.7523
v 121.6542 -2.84845 -158.98
v 121.9754 -2.848389 -49.58737
v 121.9173 -6.017334 -49.68799
v 121.769 -4.231873 -111.2677
v -9.563231 6.740601 -125.1152
v -9.562676 -1.345642 -125.3818
v 121.3212 6.841736 -49.20627
v 121.7223 6.840942 -49.43933
v 120.9092 -1.640503 -200.2193
v 121.122 6.496521 -200.0945
v 121.1601 -1.649475 -200.075
v 120.8771 -1.639404 -200.2378
v 114.4355 -1.624817 -196.5423
v 71.71072 6.588196 -172.0303
v 71.71043 6.588196 -172.0302
v 114.4357 -1.624817 -196.5425
v 114.436 -1.624817 -196.5427
v 121.8066 6.709412 -106.9001
v 121.6542 -2.848389 -158.9832
v 121.8067 6.709412 -106.9
v 121.2646 -6.016052 -49.30905
v 121.2646 -6.01593 -49.30902
v -4.507233 -1.54657 -121.7357
v -3.079502 -1.59729 -120.9128
v 40.62839 6.779968 -95.7178
v 31.8969 -2.84082 -100.7526
v 121.9749 6.840515 -49.58435
v 121.9749 6.840515 -49.58606
v -9.564157 -1.358765 -124.9276

vt 0.003713 0.006189
vt 0.37306 0.498651
vt 0.0142579 0.02727889
vt 0.37306 0.5861524
vt 0.002700998 0.005401524
vt 0.2339495 0.3694725
vt 0.37306 0.744883
vt 0.2386672 0.4760974
vt 0.07116152 0.1159124
vt 0.2357035 0.4091158
vt 0.07187717 0.1171877
vt 0.2339549 0.3695967
vt 0.234824 0.4075485
vt 0.2356113 0.4087733
vt 0.07254545 0.1183785
vt 0.2330958 0.3682586
vt 0.1894246 0.3002482
vt 0.373786 0.5915136
vt 0.373786 0.502428
vt 0.127435 0.74878
vt 0.2161494 0.74878
vt 0.3438856 0.6213438
vt 0.3447345 0.74878
vt 0.373786 0.74878
vt 0.3441284 0.657796
vt 0.3071271 0.658016
vt 0.3438485 0.6577976
vt 0.3074374 0.6578542
vt 0.3436094 0.6216517
vt 0.371822 0.497413
vt 0.002473 0.004948
vt 0.125589 0.497413
vt 0.3721109 0.4962888
vt 0.37306 0.5003105
vt 0.1641066 0.2200468
vt 0.002997 0.005606
vt 0.002695 0.003593
vt 0.126882 0.748118
vt 0.126883 0.75
vt 0.373118 0.75
vt 0.375 0.748118
vt 0.2132488 0.6572102
vt 0.125585 0.744874
vt 0.002468 0.006169
vt 0.01303029 0.02025208
vt 0.3431833 0.5272757
vt 0.2430176 0.3269022
vt 0.37182 0.498639
vt 0.3731461 0.7453455
vt 0.37306 0.7414979
vt 0.01327016 0.02650495
vt 0.2402985 0.4798034
vt 0.114436 0.2276351
vt 0.01324132 0.02648261
vt 0.2432292 0.4864579
vt 0.372032 0.744063
vt 0.373114 0.501886
vt 0.1273065 0.7490641
vt 0.128075 0.7487832
vt 0.3733184 0.5876676
vt 0.000893 0.003571
vt 0.12401 0.496041
vt 0.2145468 0.75
vt 0.2157832 0.7492187
vt 0.3444813 0.75
vt 0.3445342 0.749858
vt 0.3713332 0.4979903
vt 0.2035892 0.6668818
vt 0.373058 0.6778967
vt 0.3725671 0.4979974
vt 0.3728437 0.5993602
vt 0.125633 0.7463469
vt 0.1258517 0.7475991
vt 0.126086 0.747601
vt 0.3738544 0.7469249
vt 0.375 0.748724
vt 0.376447 0.750519
vt 0.3747423 0.7480262
vt 0.3739883 0.5016494
vt 0.373325 0.4997419
vt 0.3736655 0.4998135
vt 0.3738587 0.5009122
vt 0.3740405 0.5018415
vt 0.3737244 0.5012134
vt 0.3726352 0.4990344
vt 0.3608971 0.4998722
vt 0.2798221 0.4990249
vt 0.1268141 0.4998434
vt 0.1263936 0.4990093
vt 0.3742601 0.6529618
vt 0.3742499 0.7468571
vt 0.375 0.5688552
vt 0.3749082 0.5017234
vt 0.3742765 0.5006733
vt 0.1351006 0.7353697
vt 0.1377866 0.7326838
vt 0.2200145 0.6504518
vt 0.1241466 0.7444334
vt 0.1248761 0.7463449
vt 0.1247264 0.7451798

vn -0.006266226 -0.9997432 -0.02177604
vn 0.4798082 -0.8386648 0.2577315
vn -0.01897485 -0.9998185 -0.001711552
vn -0.01897134 -0.9998176 -0.002226364
vn -0.01898274 -0.9998198 0.0004127055
vn -0.01932062 -0.9940407 0.1072834
vn -0.0188532 -0.9994036 -0.02893244
vn -0.002002929 -0.9999874 -0.004593467
vn 0 1 0
vn -0.005763627 -0.999973 -0.004562871
vn 0.008336068 -0.9998572 -0.01470179
vn 0.00797335 -0.9998575 -0.0148807
vn -0.01943728 -0.976856 0.2130131
vn -0.01898932 -0.9080542 0.4184221
vn -0.01981584 -0.9828118 0.1835435
vn -0.02808468 -0.9991429 -0.0289667
vn -0.03733688 -0.9988823 -0.02898645
vn -0.02080448 -0.9993454 -0.02958369
vn -0.02001522 -0.9993585 -0.02969695
vn -0.02159374 -0.9993324 -0.02947043
vn -0.01890565 -0.9993951 -0.02918681
vn -0.01907265 -0.9993844 -0.02944718
vn -0.0170137 -0.9994364 -0.02893711
vn 0 0 0
vn 0.007657068 -0.9998577 -0.01503195
vn 0.8025851 -0.3921559 0.4495229
vn 0.0005543346 0.9999973 -0.002288233
vn 0.0004951042 0.9999973 -0.00228834
vn -0.008511451 0.9999121 -0.002245956
vn -0.01842197 0.9998282 -0.002063839
vn 0.00139907 0.9999961 -0.002428074
vn 0.001723244 0.9999986 0
vn 0.004532111 0.9999167 -0.009143067
vn 0.008478369 0.9998361 -0.01599619
vn 0.0003596116 -0.9999998 0.0006153227
vn -8.391272E-05 -0.9999989 0.001477444
vn -0.0004745838 -0.999997 0.002427903
vn -0.0005262821 -0.9999971 0.002337545
vn 0.03622624 -0.9993423 0.001657562
vn 0.1776188 0.3204877 -0.930451
vn -0.4157138 0.5669608 -0.7111522
vn -0.3483656 0.7212854 -0.5986558
vn -0.4156286 0.5672022 -0.7110096
vn -0.2668759 0.8458496 -0.4618612
vn 0.05228496 -0.9985653 0.01156078
vn 0.001757796 -0.9999878 -0.004623998
vn 0.4038023 0.2304763 0.8853386
vn -0.9510204 0.3073418 -0.03318599
vn 0.177615 0.3205241 -0.9304393
vn -0.02027294 -0.9991676 0.03540011
vn -0.01896497 -0.9998103 -0.00442534
vn -0.01951443 -0.999025 0.03960035
vn -0.01962251 -0.9986333 0.04844018
vn -0.02050487 -0.9916337 0.1274449
vn 0.7224867 0.6752684 -0.001449079
vn 0.6211541 0.7836879 -0.0009034674
vn 0.8238193 0.5668488 -0.00199469
vn -0.3041884 0.7907999 0.5311355
vn -0.3726279 0.6585062 0.6531343
vn -0.3824651 0.6355196 0.6706976
vn -0.3627906 0.6814927 0.6355711
vn -0.3775735 0.6619226 -0.6475313
vn 0.01143305 -0.9997945 0.01659303
vn 0.01335644 -0.999791 0.015475
vn 0.009509659 -0.9997979 0.01771106
vn -0.3369676 0.7341041 0.5895287
vn -0.381663 0.6374913 0.6692819
vn -0.3814689 0.6379657 0.6689404
vn -0.3820497 0.6365445 0.669962
vn -0.3447995 0.7189652 0.6034917
vn -0.3812738 0.6384418 0.6685973
vn 0.4993001 0.01834343 -0.8662348
vn -0.9950622 -0.0992525 -0.0004825782
vn -0.9998291 0.01825399 0.002935956
vn -0.9765214 -0.2153851 -0.003894433
vn 0.9999878 0.004715425 0.001492831
vn 0.9999999 6.931823E-05 0.0002496336
vn 0.9999952 0.0001701269 -0.003087691
vn -0.5023557 8.940034E-05 -0.8646611
vn -0.5001451 0.0001677557 -0.8659416
vn -0.4940525 0.09631304 0.864081
vn -0.4991798 -0.0002338996 0.8664984
vn -0.4984464 -0.000260021 0.8669205
vn -0.4893089 0.144746 0.8600147
vn -0.4698275 0.2866903 0.8349077
vn -0.4999041 -0.0002086848 0.8660808
vn 0.3187535 -0.7176744 0.6191444
vn 0.4792495 -0.0001230534 0.8776787
vn 0.4228708 -0.0001342685 0.90619
vn 0.4430065 -0.4524207 0.7739902
vn 0.4976179 -0.0001210788 0.8673964
vn -0.01623056 -0.9995719 -0.02434585
vn -0.9999957 -4.904748E-05 0.002936551
vn -0.9999989 -4.901516E-05 0.001466573
vn -0.506836 0.03664955 -0.861263
vn -0.5119342 0.03664876 -0.8582426
vn -0.5017244 0.0366479 -0.8642509
vn 0.497997 0.0001675327 -0.8671787
vn 0.4980234 0.0001682025 -0.8671635
vn 0.4993837 0.0001665493 -0.8663809
vn -0.4979314 0.00024611 -0.8672164
vn -1 -4.882058E-05 -3.487184E-06
vn 0.9999684 0.006988084 0.003783594
vn 0.9999936 -3.146629E-05 0.003582593
vn 0.999894 0.01400734 0.003985344
vn 0.4966618 0.0001698385 -0.8679441

usemtl Aqua
f 3/2/2 2/1/2 1/1/1
f 9/5/10 1/5/9 8/5/8
f 11/1/12 10/1/11 1/1/11
f 13/7/15 14/8/14 15/8/13
f 27/15/7 18/11/7 26/15/7
f 30/12/9 31/12/9 31/12/9
f 30/12/9 30/12/9 31/12/9
f 31/12/9 28/12/9 31/12/9
f 34/16/23 29/16/23 33/17/23
f 9/5/24 9/5/24 8/5/24
f 11/1/12 10/1/25 10/1/11
f 3/2/2 35/1/26 2/1/2
f 62/29/35 60/29/35 63/29/35
f 70/32/39 69/31/39 68/30/39
f 77/39/47 70/38/47 38/20/47
f 13/41/48 78/40/48 42/24/48
f 78/48/50 82/47/50 81/46/50
f 80/45/50 79/42/50 81/46/50
f 82/47/50 80/45/50 81/46/50
f 84/50/41 13/7/41 83/49/41
f 88/53/51 86/51/51 87/52/53
f 85/51/54 76/5/52 80/54/54
f 90/59/58 89/58/58 38/20/58
f 72/34/41 7/4/41 92/60/62
f 74/34/44 94/60/62 93/18/44
f 37/19/44 71/2/44 93/18/44
f 90/59/58 95/64/66 89/58/58
f 98/66/66 78/40/70 81/65/58
f 88/53/51 4/3/3 86/51/51
f 98/66/66 81/65/58 79/63/58
f 95/64/66 98/66/66 79/63/58
f 101/68/72 100/48/72 99/67/72
f 104/70/73 104/70/73 105/71/75
f 107/72/9 32/72/78 21/72/76
f 112/82/85 34/81/84 110/79/81
f 112/82/85 110/79/81 110/79/81
f 113/80/87 62/85/89 113/80/87
f 63/85/88 115/87/91 114/86/90
f 113/80/87 114/86/90 117/86/92
f 113/80/87 118/86/92 118/86/92
f 99/67/96 100/48/95 122/67/95
f 124/95/100 25/43/99 51/43/98
f 125/96/100 126/97/100 127/68/100
f 25/43/99 124/95/100 25/43/99
f 103/77/80 109/78/80 128/78/101
f 103/41/94 56/91/102 129/91/94
f 103/41/24 57/91/24 57/91/24
f 130/100/105 21/72/76 23/98/103
f 23/98/103 23/98/103 130/100/105
f 23/43/99 23/43/99 25/43/99
f 25/43/24 25/43/24 51/43/24
f 25/43/24 25/43/24 25/43/24
f 25/43/99 25/43/99 25/43/99
f 1/1/5 5/1/4 4/3/3
f 4/3/3 6/3/6 1/1/5
f 1/1/7 6/3/7 7/4/7
f 7/4/7 3/2/7 1/1/7
f 13/7/7 7/4/7 12/6/7
f 12/6/7 14/8/7 13/7/7
f 14/8/7 17/10/7 16/9/7
f 16/9/7 6/3/7 14/8/7
f 6/3/6 4/3/3 15/8/13
f 15/8/13 14/8/14 6/3/6
f 12/6/7 16/9/7 18/11/7
f 18/11/7 19/12/7 12/6/7
f 22/14/16 21/14/17 20/13/16
f 20/13/16 17/10/7 22/14/16
f 24/13/18 20/13/19 23/13/18
f 23/13/18 25/13/20 24/13/18
f 19/12/21 29/16/7 28/12/21
f 28/12/21 30/12/22 19/12/21
f 30/12/7 31/12/7 32/14/7
f 32/14/7 22/14/7 30/12/7
f 38/20/27 37/19/27 36/18/27
f 36/18/27 39/21/27 38/20/27
f 41/23/27 40/22/27 36/18/27
f 36/18/27 42/24/27 41/23/27
f 39/21/27 44/26/27 43/25/27
f 43/25/27 41/23/27 39/21/27
f 40/22/28 46/22/28 45/26/28
f 45/26/28 44/26/27 40/22/28
f 43/25/27 48/27/27 47/25/27
f 47/25/27 49/25/27 43/25/27
f 52/27/29 51/27/30 50/27/29
f 50/27/29 48/27/31 52/27/29
f 45/26/27 54/28/27 53/28/27
f 53/28/27 55/26/27 45/26/27
f 58/28/32 57/28/32 56/28/32
f 56/28/32 54/28/32 58/28/32
f 61/29/33 60/29/34 59/29/33
f 59/29/33 46/22/27 61/29/33
f 63/29/36 64/29/36 61/29/35
f 61/29/35 62/29/35 63/29/36
f 66/25/37 49/25/38 64/29/36
f 64/29/36 65/29/36 66/25/37
f 58/28/27 59/29/27 67/29/27
f 67/29/27 57/28/27 58/28/27
f 68/30/40 3/33/40 71/33/40
f 71/33/40 37/34/49 68/30/40
f 73/34/43 3/2/42 72/34/41
f 72/34/41 92/60/62 73/34/43
f 71/2/44 3/2/42 74/34/44
f 74/34/44 93/18/44 71/2/44
f 75/35/45 3/2/45 68/30/45
f 68/30/45 35/1/45 75/35/45
f 8/5/8 69/37/46 76/36/8
f 76/36/8 9/5/10 8/5/8
f 76/44/50 77/43/50 79/42/50
f 79/42/50 80/45/50 76/44/50
f 86/51/51 76/5/52 85/51/51
f 85/51/51 87/52/53 86/51/51
f 87/52/53 13/7/15 15/8/13
f 15/8/13 88/53/51 87/52/53
f 13/7/15 87/52/53 82/55/54
f 82/55/54 78/56/54 13/7/15
f 85/51/54 80/54/54 82/55/54
f 82/55/54 87/52/53 85/51/54
f 70/38/55 68/57/56 37/19/55
f 37/19/55 38/20/57 70/38/55
f 38/20/59 91/59/60 90/59/59
f 90/59/59 90/59/61 38/20/59
f 77/62/63 76/61/64 69/31/63
f 69/31/63 70/32/65 77/62/63
f 68/30/25 69/31/25 10/1/25
f 10/1/25 11/1/12 68/30/25
f 5/1/4 76/5/52 86/51/51
f 86/51/51 4/3/3 5/1/4
f 79/63/58 77/39/58 89/58/58
f 89/58/58 95/64/66 79/63/58
f 97/21/68 96/64/66 90/59/67
f 90/59/67 91/59/69 97/21/68
f 92/60/62 83/49/41 42/24/42
f 42/24/42 93/18/44 92/60/62
f 84/50/41 83/49/41 92/60/62
f 92/60/62 7/4/41 84/50/41
f 42/24/71 78/40/70 98/66/66
f 98/66/66 41/23/71 42/24/71
f 41/23/71 98/66/66 96/64/66
f 96/64/66 97/21/68 41/23/71
f 104/70/73 103/2/74 102/69/73
f 102/69/73 105/71/75 104/70/73
f 66/74/78 106/73/77 21/72/76
f 21/72/76 32/72/78 66/74/78
f 103/77/80 100/76/79 108/75/79
f 108/75/79 109/78/80 103/77/80
f 67/2/83 111/80/82 110/79/81
f 110/79/81 34/81/84 67/2/83
f 111/80/82 62/84/86 113/83/86
f 113/83/86 110/79/81 111/80/82
f 113/80/87 62/85/89 65/85/88
f 65/85/88 114/86/90 113/80/87
f 116/87/91 66/89/91 32/88/91
f 32/88/91 114/86/91 116/87/91
f 103/41/94 57/91/94 119/90/93
f 119/90/93 120/92/93 103/41/94
f 67/94/93 34/93/93 120/92/93
f 120/92/93 121/90/93 67/94/93
f 100/48/95 103/2/97 104/70/97
f 104/70/97 123/67/95 100/48/95
f 125/96/100 124/95/100 51/43/98
f 51/43/98 126/97/100 125/96/100
f 108/48/100 100/48/100 127/68/100
f 127/68/100 126/97/100 108/48/100
f 106/73/77 50/99/104 23/98/103
f 23/98/103 21/72/76 106/73/77
f 50/43/106 51/43/98 25/43/99
f 25/43/99 23/43/99 50/43/106

