# Blender v2.91.2 OBJ File: ''
# www.blender.org
mtllib Triangle.mtl
o Cube_Cube.001
v -0.976649 -0.955788 0.921358
v -0.950000 -1.000000 0.950000
v -0.921487 -0.955819 0.976590
v -0.982573 -0.977859 0.934704
v -0.968335 -0.955798 0.947981
v -0.973967 -0.976935 0.959655
v -0.945247 -0.994103 0.972797
v -0.972791 -0.994088 0.945217
v -0.967081 -0.988360 0.967056
v -0.948088 -0.955809 0.968255
v -0.934781 -0.977886 0.982557
v -0.959713 -0.976943 0.973928
v -0.976649 -0.955788 -0.921229
v -0.921516 -0.955856 -0.976520
v -0.950000 -1.000000 -0.950000
v -0.968344 -0.955810 -0.947870
v -0.982568 -0.977852 -0.934628
v -0.973971 -0.976940 -0.959595
v -0.934801 -0.977912 -0.982532
v -0.948107 -0.955835 -0.968165
v -0.959724 -0.976957 -0.973883
v -0.972786 -0.994081 -0.945189
v -0.945256 -0.994115 -0.972798
v -0.967085 -0.988365 -0.967030
v 0.976462 -0.955887 0.921433
v 0.921146 -0.955819 0.976590
v 0.950000 -1.000000 0.950000
v 0.968100 -0.955866 0.948032
v 0.982508 -0.977927 0.934755
v 0.973850 -0.976973 0.959684
v 0.934582 -0.977868 0.982543
v 0.947795 -0.955840 0.968278
v 0.959555 -0.976956 0.973938
v 0.972795 -0.994119 0.945240
v 0.945173 -0.994085 0.972783
v 0.967011 -0.988373 0.967066
v 0.921175 -0.955856 -0.976520
v 0.976462 -0.955887 -0.921304
v 0.950000 -1.000000 -0.950000
v 0.947815 -0.955866 -0.968189
v 0.934601 -0.977893 -0.982518
v 0.959566 -0.976970 -0.973893
v 0.982502 -0.977920 -0.934679
v 0.968109 -0.955877 -0.947922
v 0.973853 -0.976978 -0.959624
v 0.945182 -0.994097 -0.972784
v 0.972789 -0.994112 -0.945213
v 0.967015 -0.988378 -0.967040
v 0.050385 0.779653 0.001846
v -0.004879 0.779640 -0.053393
v -0.060063 0.779611 0.001846
v -0.004879 0.779624 0.057055
v 0.038804 0.786071 -0.021783
v 0.038808 0.786061 0.025474
v 0.017397 0.807332 0.001864
v -0.028511 0.786039 -0.041835
v 0.018753 0.786066 -0.041824
v -0.004926 0.807325 -0.020456
v -0.048536 0.786018 0.025486
v -0.048531 0.786029 -0.021794
v -0.027239 0.807310 0.001864
v 0.018758 0.786050 0.045505
v -0.028515 0.786023 0.045515
v -0.004926 0.807317 0.024180
vt 0.359294 0.732409
vt 0.013801 0.041421
vt 0.128965 0.732409
vt 0.366218 0.495195
vt 0.020705 0.034510
vt 0.366218 0.725537
vt 0.131250 0.506250
vt 0.368750 0.506250
vt 0.368750 0.743750
vt 0.131250 0.743750
vt 0.128967 0.488282
vt 0.013799 0.027610
vt 0.359303 0.488282
vt 0.122066 0.725494
vt 0.123374 0.733703
vt 0.123090 0.735402
vt 0.121839 0.727685
vt 0.125000 0.743152
vt 0.125000 0.745882
vt 0.131844 0.746600
vt 0.129115 0.745882
vt 0.128401 0.743152
vt 0.133152 0.750000
vt 0.130036 0.750000
vt 0.125183 0.731033
vt 0.126225 0.738537
vt 0.129911 0.740252
vt 0.121235 0.727411
vt 0.122524 0.735145
vt 0.122066 0.495171
vt 0.121840 0.490708
vt 0.123090 0.495498
vt 0.123373 0.500034
vt 0.121240 0.484958
vt 0.122527 0.490108
vt 0.129912 0.493507
vt 0.126223 0.492358
vt 0.125182 0.487359
vt 0.131843 0.500000
vt 0.129114 0.500000
vt 0.128402 0.506851
vt 0.129114 0.504121
vt 0.131843 0.503400
vt 0.125000 0.508171
vt 0.125000 0.505051
vt 0.365523 0.727703
vt 0.369270 0.735406
vt 0.370133 0.733730
vt 0.363704 0.727409
vt 0.367569 0.735138
vt 0.363579 0.740244
vt 0.366135 0.738543
vt 0.362173 0.731046
vt 0.368147 0.750000
vt 0.370876 0.750000
vt 0.371599 0.743155
vt 0.370876 0.745883
vt 0.368147 0.746598
vt 0.375000 0.741844
vt 0.375000 0.744960
vt 0.362177 0.487368
vt 0.366136 0.492362
vt 0.363585 0.493502
vt 0.363718 0.484957
vt 0.367577 0.490103
vt 0.370132 0.500048
vt 0.369271 0.495494
vt 0.365526 0.490713
vt 0.375000 0.506848
vt 0.375000 0.504120
vt 0.368148 0.503402
vt 0.370877 0.504120
vt 0.371599 0.506848
vt 0.366825 0.500000
vt 0.369946 0.500000
vt 0.018753 0.028302
vt 0.013688 0.022813
vt 0.018755 0.034212
vt 0.016966 0.022621
vt 0.011218 0.014958
vt 0.009550 0.025014
vt 0.009128 0.018257
vt 0.015454 0.025007
vt 0.005658 0.022634
vt 0.003742 0.014967
vt 0.006904 0.034524
vt 0.006256 0.034236
vt 0.004568 0.022838
vt 0.006255 0.028323
vt 0.005662 0.033974
vt 0.003745 0.022472
vt 0.015458 0.037521
vt 0.009132 0.027397
vt 0.009553 0.037531
vt 0.016977 0.033955
vt 0.011228 0.022457
vn 0.0000 0.4682 0.8836
vn 0.8823 0.4708 -0.0000
vn 0.0000 -1.0000 0.0000
vn 0.0000 0.4696 -0.8829
vn -0.8746 0.3960 0.2799
vn -0.8888 -0.3292 0.3187
vn -0.3076 -0.9007 0.3067
vn -0.3200 -0.3283 0.8887
vn -0.2803 0.3972 0.8739
vn -0.6122 0.5010 0.6117
vn -0.7072 0.0313 0.7063
vn -0.8745 0.3964 -0.2795
vn -0.6121 0.5020 -0.6110
vn -0.2806 0.3990 -0.8730
vn -0.3210 -0.3269 -0.8889
vn -0.3082 -0.9007 -0.3062
vn -0.8892 -0.3289 -0.3182
vn -0.7077 0.0327 -0.7057
vn 0.8722 0.4008 0.2805
vn 0.6103 0.5037 0.6114
vn 0.2795 0.3982 0.8737
vn 0.3185 -0.3274 0.8896
vn 0.3063 -0.9006 0.3083
vn 0.8893 -0.3254 0.3213
vn 0.7057 0.0350 0.7077
vn 0.2797 0.4000 -0.8728
vn 0.6102 0.5048 -0.6107
vn 0.8721 0.4012 -0.2802
vn 0.8897 -0.3250 -0.3207
vn 0.3069 -0.9006 -0.3078
vn 0.3195 -0.3259 -0.8898
vn 0.7062 0.0364 -0.7071
vn 0.6428 0.7661 0.0001
vn 0.3924 0.8318 -0.3927
vn -0.0003 0.7655 -0.6434
vn -0.3938 0.8310 -0.3930
vn -0.6449 0.7643 0.0001
vn -0.3939 0.8306 0.3935
vn -0.0003 0.7648 0.6443
vn 0.3925 0.8315 0.3932
vn -0.0005 1.0000 0.0002
vn -0.2513 -0.9679 -0.0000
vn -0.8565 -0.5162 -0.0000
vn -0.9658 0.2592 -0.0000
vn 0.0000 -0.9681 -0.2504
vn 0.0000 -0.5150 -0.8572
vn 0.0000 0.2628 -0.9648
vn 0.2500 -0.9683 -0.0000
vn 0.8575 -0.5144 -0.0000
vn 0.9644 0.2645 -0.0000
vn 0.0000 -0.9680 0.2509
vn 0.0000 -0.5157 0.8568
vn 0.0000 0.2608 0.9654
vn 0.2444 0.5537 -0.7960
vn 0.5646 0.6016 -0.5650
vn 0.7954 0.5545 -0.2446
vn -0.7977 0.5513 -0.2445
vn -0.5663 0.5997 -0.5654
vn -0.2450 0.5529 -0.7964
vn -0.2450 0.5517 0.7972
vn -0.5665 0.5989 0.5661
vn -0.7978 0.5510 0.2448
vn 0.7956 0.5542 0.2449
vn 0.5648 0.6009 0.5657
vn 0.2444 0.5525 0.7969
vn -0.8842 0.4670 0.0000
usemtl None
s off
f 26/1/1 52/2/1 3/3/1
f 38/4/2 49/5/2 25/6/2
f 15/7/3 39/8/3 27/9/3 2/10/3
f 14/11/4 50/12/4 37/13/4
f 1/14/5 4/15/5 6/16/5 5/17/5
f 4/15/6 8/18/6 9/19/6 6/16/6
f 2/10/7 7/20/7 9/21/7 8/22/7
f 7/20/8 11/23/8 12/24/8 9/21/8
f 3/3/9 10/25/9 12/26/9 11/27/9
f 10/25/10 5/28/10 6/29/10 12/26/10
f 6/16/11 9/21/11 12/26/11
f 13/30/12 16/31/12 18/32/12 17/33/12
f 16/31/13 20/34/13 21/35/13 18/32/13
f 14/11/14 19/36/14 21/37/14 20/38/14
f 19/36/15 23/39/15 24/40/15 21/37/15
f 15/7/16 22/41/16 24/42/16 23/43/16
f 22/41/17 17/44/17 18/45/17 24/42/17
f 18/32/18 21/37/18 24/42/18
f 25/6/19 28/46/19 30/47/19 29/48/19
f 28/46/20 32/49/20 33/50/20 30/47/20
f 26/1/21 31/51/21 33/52/21 32/53/21
f 31/51/22 35/54/22 36/55/22 33/52/22
f 27/9/23 34/56/23 36/57/23 35/58/23
f 34/56/24 29/59/24 30/60/24 36/57/24
f 30/47/25 33/52/25 36/57/25
f 37/13/26 40/61/26 42/62/26 41/63/26
f 40/61/27 44/64/27 45/65/27 42/62/27
f 38/4/28 43/66/28 45/67/28 44/68/28
f 43/66/29 47/69/29 48/70/29 45/67/29
f 39/8/30 46/71/30 48/72/30 47/73/30
f 46/71/31 41/74/31 42/75/31 48/72/31
f 42/62/32 45/67/32 48/72/32
f 49/5/33 53/76/33 55/77/33 54/78/33
f 53/76/34 57/79/34 58/80/34 55/77/34
f 50/12/35 56/81/35 58/82/35 57/83/35
f 56/81/36 60/84/36 61/85/36 58/82/36
f 51/86/37 59/87/37 61/88/37 60/89/37
f 59/87/38 63/90/38 64/91/38 61/88/38
f 52/2/39 62/92/39 64/93/39 63/94/39
f 62/92/40 54/95/40 55/96/40 64/93/40
f 55/77/41 58/82/41 61/88/41 64/93/41
f 15/7/42 2/10/42 8/22/42 22/41/42
f 22/41/43 8/22/43 4/15/43 17/33/43
f 17/33/44 4/15/44 1/14/44 13/30/44
f 39/8/45 15/7/45 23/43/45 46/71/45
f 46/71/46 23/43/46 19/36/46 41/63/46
f 41/63/47 19/36/47 14/11/47 37/13/47
f 27/9/48 39/8/48 47/73/48 34/56/48
f 34/56/49 47/73/49 43/66/49 29/48/49
f 29/48/50 43/66/50 38/4/50 25/6/50
f 2/10/51 27/9/51 35/58/51 7/20/51
f 7/20/52 35/58/52 31/51/52 11/27/52
f 11/27/53 31/51/53 26/1/53 3/3/53
f 37/13/54 50/12/54 57/83/54 40/61/54
f 40/61/55 57/83/55 53/76/55 44/68/55
f 44/68/56 53/76/56 49/5/56 38/4/56
f 13/30/57 51/86/57 60/89/57 16/31/57
f 16/31/58 60/89/58 56/81/58 20/38/58
f 20/38/59 56/81/59 50/12/59 14/11/59
f 3/3/60 52/2/60 63/94/60 10/25/60
f 10/25/61 63/94/61 59/87/61 5/17/61
f 5/17/62 59/87/62 51/86/62 1/14/62
f 25/6/63 49/5/63 54/78/63 28/46/63
f 28/46/64 54/78/64 62/92/64 32/53/64
f 32/53/65 62/92/65 52/2/65 26/1/65
f 1/14/66 51/86/66 13/30/66
